<svg width="114" height="53" viewBox="0 0 114 53" fill="none" xmlns="http://www.w3.org/2000/svg">
<path d="M27.3459 37.544C26.3859 37.544 25.5859 37.192 24.9459 36.488C24.3379 35.784 23.8579 34.84 23.5059 33.656C23.1859 32.472 22.9459 31.16 22.7859 29.72C22.6579 28.248 22.5939 26.76 22.5939 25.256C22.5939 24.616 22.5939 24.008 22.5939 23.432C22.6259 22.824 22.6579 22.216 22.6899 21.608C22.5299 21.64 22.3539 21.656 22.1619 21.656C22.0019 21.656 21.8419 21.656 21.6819 21.656C20.7219 21.656 19.9539 21.56 19.3779 21.368C19.0899 21.272 18.8179 21.032 18.5619 20.648C18.3379 20.264 18.1459 19.848 17.9859 19.4C17.8579 18.952 17.7939 18.616 17.7939 18.392C17.7939 18.232 17.8259 18.152 17.8899 18.152H17.9379C18.7059 18.376 19.4739 18.552 20.2419 18.68C21.0099 18.808 21.7779 18.872 22.5459 18.872H22.8819C22.9459 18.072 23.0099 17.368 23.0739 16.76C23.1379 16.12 23.1859 15.592 23.2179 15.176C23.4099 13.192 23.6339 11.32 23.8899 9.56C24.1779 7.768 24.4819 6.184 24.8019 4.808C23.6499 4.648 22.4819 4.52 21.2979 4.424C20.1459 4.296 18.9619 4.232 17.7459 4.232C16.8179 4.232 15.8579 4.28 14.8659 4.376C13.9059 4.44 12.9299 4.584 11.9379 4.808C9.98595 5.224 8.33795 5.864 6.99395 6.728C5.64995 7.592 4.64195 8.536 3.96995 9.56C3.29795 10.584 2.96195 11.576 2.96195 12.536C2.96195 13.528 3.36195 14.392 4.16195 15.128C4.99395 15.832 6.24195 16.184 7.90595 16.184C8.16195 16.184 8.41795 16.184 8.67395 16.184C8.92995 16.152 9.20195 16.12 9.48995 16.088C10.3539 15.96 11.3939 15.688 12.6099 15.272C13.8259 14.856 15.0739 14.344 16.3539 13.736C17.6659 13.096 18.8339 12.408 19.8579 11.672C19.9539 11.576 20.1459 11.528 20.4339 11.528C20.5619 11.528 20.6259 11.576 20.6259 11.672C20.6259 11.768 20.5459 11.928 20.3859 12.152C20.2579 12.344 20.0019 12.632 19.6179 13.016C18.0179 14.584 16.1459 15.736 14.0019 16.472C11.8899 17.176 9.80995 17.528 7.76195 17.528C7.44195 17.528 7.12195 17.528 6.80195 17.528C6.51395 17.496 6.22595 17.464 5.93795 17.432C4.17795 17.24 2.80195 16.568 1.80995 15.416C0.849945 14.264 0.369945 12.936 0.369945 11.432C0.369945 10.312 0.673945 9.176 1.28195 8.024C1.88995 6.84 2.81795 5.768 4.06595 4.808C5.34595 3.816 6.99395 3.032 9.00995 2.456C11.0259 1.848 13.4419 1.544 16.2579 1.544C17.6019 1.544 19.0579 1.656 20.6259 1.88C22.1939 2.104 23.7939 2.376 25.4259 2.696C25.4579 2.632 25.4739 2.568 25.4739 2.504C25.5059 2.408 25.5379 2.328 25.5699 2.264C25.6019 2.168 25.6659 2.12 25.7619 2.12C25.8899 2.088 26.0019 2.072 26.0979 2.072C26.8979 2.072 27.5859 2.184 28.1619 2.408C28.7699 2.6 29.0739 2.92 29.0739 3.368C30.4819 3.592 31.8419 3.8 33.1539 3.992C34.4979 4.152 35.7619 4.232 36.9459 4.232C38.0659 4.232 39.0739 4.136 39.9699 3.944C40.5139 3.816 40.9299 3.592 41.2179 3.272C41.5059 2.92 41.6499 2.584 41.6499 2.264C41.6499 1.816 41.4419 1.48 41.0259 1.256C40.9939 1.224 40.9779 1.176 40.9779 1.112C40.9779 0.951999 41.0419 0.871999 41.1699 0.871999C41.7779 0.871999 42.2899 1.112 42.7059 1.592C43.1539 2.072 43.3779 2.632 43.3779 3.272C43.3779 3.88 43.0899 4.472 42.5139 5.048C41.9699 5.624 41.0099 5.992 39.6339 6.152C38.7699 6.248 37.8899 6.296 36.9939 6.296C35.6179 6.296 34.2259 6.216 32.8179 6.056C31.4419 5.864 30.0499 5.656 28.6419 5.432C28.3219 6.904 27.9379 8.872 27.4899 11.336C27.0739 13.768 26.6899 16.312 26.3379 18.968C28.0659 18.936 29.7619 18.824 31.4259 18.632C33.1219 18.408 34.5619 18.072 35.7459 17.624C35.9059 17.528 36.0179 17.48 36.0819 17.48C36.3059 17.48 36.4339 17.576 36.4659 17.768V17.864C36.4659 18.056 36.3539 18.216 36.1299 18.344C35.9059 18.472 35.7619 18.568 35.6979 18.632C35.1219 18.888 34.3059 19.176 33.2499 19.496C32.2259 19.816 31.0899 20.136 29.8419 20.456C28.5939 20.744 27.3299 21 26.0499 21.224C25.9859 22.12 25.9219 22.984 25.8579 23.816C25.7939 24.648 25.7459 25.48 25.7139 26.312C25.7139 26.632 25.6979 26.968 25.6659 27.32C25.6659 27.672 25.6659 28.04 25.6659 28.424C25.6659 29.512 25.7139 30.616 25.8099 31.736C25.9379 32.824 26.1619 33.736 26.4819 34.472C26.8019 35.208 27.2819 35.576 27.9219 35.576C28.2419 35.576 28.5299 35.48 28.7859 35.288C29.0419 35.096 29.2179 34.888 29.3139 34.664C29.4099 34.408 29.5219 34.28 29.6499 34.28C29.8419 34.28 29.9379 34.44 29.9379 34.76V34.856C29.9379 35.624 29.6979 36.264 29.2179 36.776C28.7699 37.288 28.1459 37.544 27.3459 37.544ZM41.2716 10.712C40.6636 10.712 40.1196 10.488 39.6396 10.04C39.1916 9.592 38.9676 9.048 38.9676 8.408C38.9676 7.768 39.1916 7.224 39.6396 6.776C40.1196 6.328 40.6636 6.104 41.2716 6.104C41.9116 6.104 42.4556 6.328 42.9036 6.776C43.3516 7.224 43.5756 7.768 43.5756 8.408C43.5756 9.048 43.3516 9.592 42.9036 10.04C42.4556 10.488 41.9116 10.712 41.2716 10.712ZM40.9356 35.24C39.7836 35.24 38.8716 34.76 38.1996 33.8C37.5596 32.808 37.0956 31.56 36.8076 30.056C36.5516 28.52 36.4236 26.92 36.4236 25.256C36.4236 23.88 36.4876 22.552 36.6156 21.272C36.7756 19.96 36.9516 18.824 37.1436 17.864C37.3676 16.872 37.5756 16.168 37.7676 15.752C37.9596 15.368 38.2636 15.016 38.6796 14.696C39.1276 14.344 39.7196 14.168 40.4556 14.168C40.8716 14.168 41.2876 14.216 41.7036 14.312C41.3836 15.432 40.9996 16.984 40.5516 18.968C40.1036 20.952 39.8796 23.144 39.8796 25.544C39.8796 26.376 39.8956 27.272 39.9276 28.232C39.9596 29.16 40.0396 30.04 40.1676 30.872C40.2956 31.672 40.4876 32.328 40.7436 32.84C41.0316 33.352 41.3996 33.608 41.8476 33.608H41.8956C42.1516 33.608 42.4236 33.48 42.7116 33.224C43.0316 32.968 43.3676 32.488 43.7196 31.784C44.1996 30.856 44.6476 29.656 45.0636 28.184C45.1276 27.896 45.2556 27.752 45.4476 27.752C45.6076 27.752 45.6876 27.944 45.6876 28.328V28.52C45.6236 29.352 45.3996 30.296 45.0156 31.352C44.6316 32.408 44.0876 33.32 43.3836 34.088C42.7116 34.856 41.8956 35.24 40.9356 35.24ZM49.0884 52.664C47.3284 52.664 46.0644 52.216 45.2964 51.32C44.5604 50.456 44.1924 49.368 44.1924 48.056C44.1924 47.064 44.3684 46.008 44.7204 44.888C45.0724 43.8 45.5204 42.712 46.0644 41.624C46.8004 40.184 47.7764 38.856 48.9924 37.64C50.2084 36.424 51.4564 35.352 52.7364 34.424C54.0164 33.464 55.1204 32.696 56.0484 32.12V31.784C56.0484 31.208 56.0164 30.424 55.9524 29.432C55.9204 28.44 55.8724 27.4 55.8084 26.312C55.7444 25.224 55.6804 24.264 55.6164 23.432C55.5524 23.656 55.4884 23.88 55.4244 24.104C55.3604 24.296 55.2964 24.488 55.2324 24.68C54.9444 25.768 54.6084 26.936 54.2244 28.184C53.8404 29.432 53.3924 30.6 52.8804 31.688C52.3684 32.744 51.7764 33.624 51.1044 34.328C50.4644 35 49.7444 35.336 48.9444 35.336C48.1124 35.336 47.4404 35.08 46.9284 34.568C46.4164 34.056 46.0324 33.416 45.7764 32.648C45.5204 31.848 45.3444 31.032 45.2484 30.2C45.1524 29.368 45.1044 28.616 45.1044 27.944C45.1044 25.384 45.3924 22.952 45.9684 20.648C46.5764 18.344 47.6164 16.504 49.0884 15.128C49.7284 14.52 50.3844 14.088 51.0564 13.832C51.7604 13.576 52.4164 13.448 53.0244 13.448C53.7604 13.448 54.4324 13.608 55.0404 13.928C55.6804 14.216 56.1924 14.6 56.5764 15.08C56.9604 14.632 57.3924 14.36 57.8724 14.264C58.3524 14.136 58.7844 14.072 59.1684 14.072H59.7444C60.2244 14.072 60.4644 14.168 60.4644 14.36C60.4644 14.424 60.4004 14.52 60.2724 14.648C59.9524 14.936 59.6964 15.496 59.5044 16.328C59.3444 17.16 59.2324 18.152 59.1684 19.304C59.1044 20.424 59.0724 21.592 59.0724 22.808C59.0724 24.184 59.0884 25.512 59.1204 26.792C59.1524 28.04 59.1684 29.016 59.1684 29.72V30.248C60.0644 29.704 60.8644 29.272 61.5684 28.952C62.2724 28.6 62.8004 28.424 63.1524 28.424C63.2164 28.424 63.2644 28.44 63.2964 28.472C63.3284 28.472 63.3604 28.472 63.3924 28.472C63.5524 28.504 63.6324 28.616 63.6324 28.808C63.6324 28.936 63.6004 29.064 63.5364 29.192C63.4724 29.288 63.3764 29.336 63.2484 29.336C62.8644 29.368 62.3364 29.576 61.6644 29.96C61.0244 30.312 60.4324 30.728 59.8884 31.208C59.3444 31.656 59.0724 32.056 59.0724 32.408V33.176C59.0724 37.592 58.6084 41.24 57.6804 44.12C56.7844 47 55.5684 49.144 54.0324 50.552C52.5284 51.96 50.8804 52.664 49.0884 52.664ZM50.1924 31.448H50.3364C50.9444 31.448 51.4884 31.048 51.9684 30.248C52.4804 29.448 52.9284 28.44 53.3124 27.224C53.7284 25.976 54.0804 24.696 54.3684 23.384C54.6884 22.04 54.9444 20.84 55.1364 19.784C55.3284 18.696 55.4724 17.912 55.5684 17.432C55.6964 16.664 55.9204 16.024 56.2404 15.512C55.8884 15.064 55.3924 14.84 54.7524 14.84C53.7924 14.84 52.9604 15.144 52.2564 15.752C51.5844 16.36 51.0084 17.16 50.5284 18.152C50.0804 19.144 49.7124 20.2 49.4244 21.32C49.1684 22.408 48.9764 23.464 48.8484 24.488C48.7204 25.48 48.6564 26.312 48.6564 26.984C48.6564 27.208 48.6564 27.56 48.6564 28.04C48.6884 28.52 48.7524 29.032 48.8484 29.576C48.9444 30.088 49.0884 30.536 49.2804 30.92C49.5044 31.272 49.8084 31.448 50.1924 31.448ZM48.5604 51.656C50.1284 51.656 51.4404 50.904 52.4964 49.4C53.5524 47.896 54.3684 45.768 54.9444 43.016C55.5524 40.296 55.9364 37.064 56.0964 33.32C55.5844 33.608 54.8004 34.2 53.7444 35.096C52.6884 35.992 51.5844 37.096 50.4324 38.408C49.3124 39.752 48.3684 41.272 47.6004 42.968C47.1844 43.896 46.8644 44.792 46.6404 45.656C46.4164 46.552 46.3044 47.368 46.3044 48.104C46.3044 49.16 46.4964 50.008 46.8804 50.648C47.2964 51.32 47.8564 51.656 48.5604 51.656ZM77.1572 35.24C76.1652 35.24 75.3652 34.936 74.7572 34.328C74.1492 33.688 73.6692 32.888 73.3172 31.928C72.9972 30.936 72.7732 29.944 72.6452 28.952C72.5172 27.928 72.4532 27.032 72.4532 26.264C72.0692 27.704 71.5732 29.112 70.9652 30.488C70.3892 31.864 69.7492 33 69.0452 33.896C68.3412 34.76 67.5732 35.192 66.7412 35.192H66.6932C65.9252 35.192 65.2852 34.84 64.7732 34.136C64.2612 33.4 63.8772 32.44 63.6212 31.256C63.3652 30.072 63.2372 28.792 63.2372 27.416V26.936C63.2372 25.656 63.3492 24.248 63.5732 22.712C63.7972 21.144 64.1972 19.656 64.7732 18.248C65.3492 16.84 66.1332 15.688 67.1252 14.792C68.1492 13.864 69.4452 13.4 71.0132 13.4C71.6212 13.4 72.1652 13.544 72.6452 13.832C73.1572 14.088 73.5252 14.472 73.7492 14.984C73.9732 14.728 74.2772 14.52 74.6612 14.36C75.0452 14.2 75.5092 14.12 76.0532 14.12C76.2452 14.12 76.4532 14.136 76.6772 14.168C76.9332 14.2 77.1892 14.248 77.4452 14.312C77.2532 15.048 77.0292 16.056 76.7732 17.336C76.5172 18.616 76.2932 20.024 76.1012 21.56C75.9412 23.064 75.8612 24.536 75.8612 25.976V26.168C75.8612 26.776 75.8932 27.496 75.9572 28.328C76.0212 29.16 76.1332 29.976 76.2932 30.776C76.4532 31.576 76.6772 32.248 76.9652 32.792C77.2532 33.336 77.6212 33.608 78.0692 33.608H78.1172C78.3732 33.608 78.6452 33.48 78.9332 33.224C79.2532 32.968 79.5892 32.488 79.9412 31.784C80.4212 30.856 80.8692 29.656 81.2852 28.184C81.3492 27.896 81.4772 27.752 81.6692 27.752C81.8292 27.752 81.9092 27.944 81.9092 28.328V28.52C81.8452 29.352 81.6212 30.296 81.2372 31.352C80.8532 32.408 80.3092 33.32 79.6052 34.088C78.9332 34.856 78.1172 35.24 77.1572 35.24ZM68.3732 31.256C68.8852 31.256 69.3492 30.888 69.7652 30.152C70.2132 29.416 70.6132 28.52 70.9652 27.464C71.3172 26.408 71.6212 25.384 71.8772 24.392C72.2612 22.92 72.5172 21.432 72.6452 19.928C72.7732 18.392 73.0452 16.888 73.4612 15.416C73.0772 15 72.6452 14.792 72.1652 14.792C71.4612 14.792 70.7412 15.144 70.0052 15.848C69.2692 16.552 68.6932 17.352 68.2772 18.248C67.7652 19.368 67.3812 20.68 67.1252 22.184C66.9012 23.688 66.7892 25.128 66.7892 26.504C66.7892 26.856 66.7892 27.208 66.7892 27.56C66.8212 27.912 66.8532 28.248 66.8852 28.568C66.9492 29.528 67.1252 30.216 67.4132 30.632C67.7332 31.048 68.0532 31.256 68.3732 31.256ZM90.2188 35.24C89.1628 35.24 88.3308 34.904 87.7228 34.232C87.1148 33.528 86.6828 32.632 86.4268 31.544C86.2028 30.424 86.0908 29.224 86.0908 27.944C86.0908 26.568 86.1708 25.224 86.3308 23.912C86.5228 22.568 86.7148 21.384 86.9068 20.36C87.1308 19.336 87.2908 18.632 87.3868 18.248C86.4908 18.184 85.7868 18.04 85.2748 17.816C84.7628 17.592 84.3308 17.32 83.9788 17C83.8508 18.536 83.6428 20.184 83.3548 21.944C83.0988 23.704 82.7948 25.4 82.4428 27.032C82.0908 28.632 81.7068 30.008 81.2908 31.16C81.1628 31.576 80.9548 31.784 80.6668 31.784C80.4428 31.784 80.3308 31.64 80.3308 31.352C80.3308 31.288 80.3308 31.208 80.3308 31.112C80.3628 31.016 80.3948 30.92 80.4268 30.824C80.9388 29.352 81.3708 27.752 81.7228 26.024C82.0748 24.264 82.3468 22.568 82.5388 20.936C82.7308 19.304 82.8268 17.944 82.8268 16.856V16.328C82.0268 15.976 81.4348 15.464 81.0508 14.792C80.6988 14.12 80.5228 13.48 80.5228 12.872C80.5228 12.424 80.6028 12.024 80.7628 11.672C80.9548 11.32 81.2268 11.144 81.5788 11.144H81.6748C82.1228 11.144 82.5228 11.464 82.8748 12.104C83.2268 12.712 83.5148 13.4 83.7388 14.168C83.9628 14.904 84.0748 15.496 84.0748 15.944C84.4588 16.232 84.8748 16.44 85.3228 16.568C85.8028 16.696 86.2028 16.76 86.5228 16.76C86.9388 16.76 87.2108 16.696 87.3388 16.568C87.5948 16.312 87.8988 15.944 88.2508 15.464C88.6348 14.984 89.2268 14.744 90.0268 14.744C90.5708 14.744 91.2268 14.904 91.9948 15.224C91.6108 16.024 91.2588 16.936 90.9388 17.96C90.6188 18.952 90.3468 20.008 90.1228 21.128C90.0908 21.384 90.0108 21.896 89.8828 22.664C89.7548 23.432 89.6428 24.312 89.5468 25.304C89.4508 26.296 89.4028 27.288 89.4028 28.28C89.4028 29.688 89.5468 30.936 89.8348 32.024C90.1548 33.08 90.7308 33.608 91.5628 33.608C92.0748 33.608 92.5228 33.4 92.9068 32.984C93.2908 32.568 93.6268 32.056 93.9148 31.448C94.2028 30.808 94.4428 30.2 94.6348 29.624C94.8268 29.016 94.9708 28.536 95.0668 28.184C95.1308 27.896 95.2588 27.752 95.4508 27.752C95.6108 27.752 95.6908 27.928 95.6908 28.28V28.52C95.6908 29.992 95.4188 31.24 94.8748 32.264C94.3628 33.256 93.6908 34.008 92.8588 34.52C92.0268 35 91.1468 35.24 90.2188 35.24ZM100.16 35.48C99.0721 35.48 98.1761 35.192 97.4721 34.616C96.8001 34.04 96.2721 33.288 95.8881 32.36C95.5361 31.432 95.2801 30.424 95.1201 29.336C94.9921 28.216 94.9281 27.128 94.9281 26.072C94.9281 25.272 94.9601 24.536 95.0241 23.864C95.0881 23.16 95.1361 22.552 95.1681 22.04C95.3281 20.696 95.6801 19.352 96.2241 18.008C96.7681 16.632 97.5681 15.496 98.6241 14.6C99.6801 13.672 101.072 13.208 102.8 13.208C104.016 13.208 104.944 13.608 105.584 14.408C106.256 15.176 106.72 16.184 106.976 17.432C107.232 18.648 107.36 19.944 107.36 21.32C107.36 21.704 107.344 22.088 107.312 22.472C107.312 22.856 107.296 23.24 107.264 23.624C108.064 24.52 109.024 24.968 110.144 24.968C111.008 24.968 111.856 24.648 112.688 24.008C112.88 23.848 113.056 23.768 113.216 23.768C113.344 23.768 113.408 23.848 113.408 24.008C113.408 24.296 113.328 24.488 113.168 24.584C112.656 25.064 112.112 25.416 111.536 25.64C110.96 25.864 110.384 25.976 109.808 25.976C108.816 25.976 107.904 25.688 107.072 25.112C107.008 25.72 106.912 26.296 106.784 26.84C106.688 27.352 106.592 27.8 106.496 28.184C106.208 29.176 105.776 30.248 105.2 31.4C104.656 32.52 103.952 33.48 103.088 34.28C102.256 35.08 101.28 35.48 100.16 35.48ZM101.744 32.84C102.416 32.84 102.976 32.52 103.424 31.88C103.904 31.24 104.304 30.504 104.624 29.672C104.944 28.84 105.168 28.136 105.296 27.56C105.392 27.112 105.472 26.6 105.536 26.024C105.6 25.448 105.648 24.76 105.68 23.96C105.232 23.576 104.848 22.888 104.528 21.896C104.24 20.872 104.096 19.896 104.096 18.968C104.096 18.328 104.176 17.768 104.336 17.288C104.496 16.776 104.736 16.44 105.056 16.28C104.864 15.8 104.608 15.352 104.288 14.936C103.968 14.488 103.52 14.264 102.944 14.264C102.4 14.264 101.904 14.584 101.456 15.224C101.04 15.864 100.672 16.632 100.352 17.528C100.032 18.424 99.7761 19.272 99.5841 20.072C99.4241 20.872 99.3281 21.432 99.2961 21.752C99.2641 22.104 99.2161 22.648 99.1521 23.384C99.0881 24.088 99.0561 24.872 99.0561 25.736C99.0561 26.824 99.1201 27.912 99.2481 29C99.4081 30.088 99.6801 31 100.064 31.736C100.448 32.472 101.008 32.84 101.744 32.84Z" fill="#F5F5F5"/>
</svg>
