<svg width="16" height="17" viewBox="0 0 16 17" fill="none" xmlns="http://www.w3.org/2000/svg">
<mask id="mask0_5307_820" style="mask-type:alpha" maskUnits="userSpaceOnUse" x="0" y="0" width="16" height="17">
<rect y="0.589844" width="16" height="16" fill="#E9B86A"/>
</mask>
<g mask="url(#mask0_5307_820)">
<path d="M2.84989 13.9899L2.51655 13.6566L9.24989 6.92325C9.01655 6.3677 8.961 5.8427 9.08322 5.34825C9.20544 4.85381 9.48322 4.38992 9.91655 3.95658C10.3054 3.5677 10.8166 3.27881 11.4499 3.08992C12.0832 2.90103 12.6166 3.02325 13.0499 3.45658C13.4832 3.88992 13.6054 4.42325 13.4166 5.05658C13.2277 5.68992 12.9388 6.20103 12.5499 6.58992C12.1166 7.02325 11.6527 7.30103 11.1582 7.42325C10.6638 7.54547 10.1388 7.48992 9.58322 7.25658L8.24989 8.58992L13.3166 13.6566L12.9832 13.9899L7.91655 8.95658L2.84989 13.9899ZM4.91655 8.38992L3.11655 6.58992C2.64989 6.12325 2.39155 5.57325 2.34155 4.93992C2.29155 4.30658 2.461 3.72325 2.84989 3.18992L6.48322 6.82325L4.91655 8.38992Z" fill="#E9B86A"/>
</g>
</svg>
